stateDiagram-v2
  state "received" as s1_state_1
  [*] --> s1_state_1
  state "screening" as s1_state_2
  state "interview-round-1" as s1_state_3
  state "interview-round-2" as s1_state_4
  state "offer_sent" as s1_state_5
  state "background_check" as s1_state_6
  state "hired" as s1_state_7
  state "rejected" as s1_state_8
  s1_state_1 --> s1_state_2
  s1_state_2 --> s1_state_3
  s1_state_2 --> s1_state_8
  s1_state_3 --> s1_state_4
  s1_state_3 --> s1_state_8
  s1_state_4 --> s1_state_5
  s1_state_4 --> s1_state_8
  s1_state_5 --> s1_state_6
  s1_state_5 --> s1_state_8
  s1_state_6 --> s1_state_7
  s1_state_6 --> s1_state_8
  s1_state_7 --> [*]
  s1_state_8 --> [*]
