stateDiagram-v2
  state "open" as s1_state_1
  [*] --> s1_state_1
  state "triaged" as s1_state_2
  state "investigating" as s1_state_3
  state "mitigated" as s1_state_4
  state "resolved" as s1_state_5
  state "closed" as s1_state_6
  s1_state_1 --> s1_state_2
  s1_state_2 --> s1_state_3
  s1_state_2 --> s1_state_4
  s1_state_3 --> s1_state_4
  s1_state_4 --> s1_state_5
  s1_state_5 --> s1_state_6
  s1_state_6 --> [*]
